<svg width="20" height="20" viewBox="0 0 20 20" fill="none" xmlns="http://www.w3.org/2000/svg">
<g clip-path="url(#clip0_2255_1313)">
<path d="M10.0482 15.4818C10.207 15.4818 10.3442 15.4096 10.6257 15.1354L12.3869 13.4463C12.4951 13.338 12.524 13.1792 12.423 13.0493C11.9538 12.443 11.066 11.9161 10.0482 11.9161C9.00161 11.9161 8.11379 12.4647 7.64461 13.0926C7.57244 13.2081 7.60131 13.338 7.7168 13.4463L9.47079 15.1354C9.75229 15.4024 9.88944 15.4818 10.0482 15.4818ZM5.82567 11.5552C5.98446 11.7067 6.17935 11.6851 6.32371 11.5263C7.18988 10.5663 8.60462 9.86612 10.0482 9.87334C11.5063 9.86612 12.921 10.5879 13.8017 11.5479C13.9316 11.6995 14.112 11.6923 14.2708 11.5479L15.3896 10.4364C15.5051 10.3209 15.5196 10.1621 15.4112 10.0321C14.3213 8.69679 12.3003 7.69349 10.0482 7.69349C7.7962 7.69349 5.77514 8.69679 4.68521 10.0321C4.57694 10.1621 4.58415 10.3064 4.70686 10.4364L5.82567 11.5552ZM2.83016 8.538C2.97453 8.67514 3.17663 8.67514 3.31377 8.53079C5.08942 6.64686 7.42808 5.65078 10.0482 5.65078C12.6828 5.65078 15.0359 6.65408 16.7971 8.538C16.9271 8.66792 17.1219 8.66071 17.2663 8.52357L18.2624 7.52747C18.3924 7.39754 18.3851 7.23875 18.2841 7.11604C16.5878 5.0228 13.3974 3.48535 10.0482 3.48535C6.70627 3.48535 3.50144 5.0228 1.81242 7.11604C1.71136 7.23875 1.71136 7.39754 1.83407 7.52747L2.83016 8.538Z" fill="black"/>
</g>
<defs>
<clipPath id="clip0_2255_1313">
<rect width="16.6208" height="12.0037" fill="white" transform="translate(1.73914 3.47803)"/>
</clipPath>
</defs>
</svg>
