<svg width="32" height="20" viewBox="0 0 32 20" fill="none" xmlns="http://www.w3.org/2000/svg">
<g clip-path="url(#clip0_2255_1318)">
<path opacity="0.4" d="M7.41077 15.6128H21.9153C23.6082 15.6128 24.8173 15.4228 25.6802 14.5598C26.5461 13.6967 26.7239 12.5093 26.7239 10.8106V8.29481C26.7239 6.59615 26.5461 5.40292 25.6802 4.5428C24.8143 3.67978 23.6082 3.49268 21.9153 3.49268H7.35735C5.73014 3.49268 4.51823 3.68267 3.65522 4.54859C2.7893 5.41161 2.60864 6.60838 2.60864 8.23494V10.8106C2.60864 12.5093 2.7864 13.6996 3.64943 14.5598C4.51823 15.4228 5.72145 15.6128 7.41077 15.6128ZM7.16436 14.4564C6.06324 14.4564 5.07178 14.2821 4.49619 13.713C3.92994 13.1374 3.76507 12.1611 3.76507 11.057V8.09893C3.76507 6.95017 3.92994 5.96226 4.49329 5.38667C5.06889 4.80818 6.07548 4.64621 7.22134 4.64621H22.1682C23.2693 4.64621 24.2608 4.82331 24.8271 5.38956C25.4026 5.96515 25.5675 6.93503 25.5675 8.03905V11.057C25.5675 12.1611 25.3998 13.1374 24.8271 13.713C24.2608 14.2851 23.2693 14.4564 22.1682 14.4564H7.16436ZM27.8061 11.8269C28.4977 11.7831 29.4328 10.8918 29.4328 9.54949C29.4328 8.21074 28.4977 7.31941 27.8061 7.27561V11.8269Z" fill="black"/>
<path d="M6.83727 13.4971H22.5047C23.3426 13.4971 23.8408 13.366 24.1573 13.0494C24.4739 12.7299 24.6114 12.2289 24.6114 11.3903V7.71166C24.6114 6.86732 24.4739 6.37206 24.1602 6.0526C23.8408 5.73893 23.3368 5.60498 22.5047 5.60498H6.89715C6.00228 5.60498 5.4861 5.73603 5.18176 6.0497C4.86809 6.36916 4.73059 6.88535 4.73059 7.76509V11.3903C4.73059 12.2376 4.86809 12.7299 5.18176 13.0494C5.50123 13.3631 6.00517 13.4971 6.83727 13.4971Z" fill="black"/>
</g>
<defs>
<clipPath id="clip0_2255_1318">
<rect width="26.8242" height="12.1346" fill="white" transform="translate(2.60864 3.47803)"/>
</clipPath>
</defs>
</svg>
