<svg width="120" height="46" viewBox="0 0 120 46" fill="none" xmlns="http://www.w3.org/2000/svg">
<path d="M43.2996 17H42.3695V9.52517H45.3729C46.8745 9.52517 47.715 10.5562 47.715 11.7777C47.715 12.9992 46.8521 14.0302 45.3729 14.0302H43.2996V17ZM46.7513 11.7777C46.7513 10.9372 46.1461 10.3545 45.2608 10.3545H43.2996V13.201H45.2608C46.1461 13.201 46.7513 12.6182 46.7513 11.7777ZM49.7089 13.2682C49.7089 11.0605 51.1993 9.4019 53.4183 9.4019C55.626 9.4019 57.1277 11.0605 57.1277 13.2682C57.1277 15.4759 55.626 17.1345 53.4183 17.1345C51.1993 17.1345 49.7089 15.4759 49.7089 13.2682ZM56.1639 13.2682C56.1639 11.52 55.088 10.2312 53.4183 10.2312C51.7373 10.2312 50.6726 11.52 50.6726 13.2682C50.6726 15.0052 51.7373 16.3052 53.4183 16.3052C55.088 16.3052 56.1639 15.0052 56.1639 13.2682ZM66.1503 17H65.1417L63.4943 10.9708L61.847 17H60.8384L58.7091 9.52517H59.7401L61.3987 15.7561L63.1133 9.52517H63.8866L65.6012 15.7561L67.2486 9.52517H68.2796L66.1503 17ZM75.2816 17H70.3843V9.52517H75.2816V10.3545H71.3145V12.7639H75.2032V13.5932H71.3145V16.1707H75.2816V17ZM83.2533 17H82.1551L80.2499 14.0302H78.7594V17H77.8293V9.52517H80.8327C82.1999 9.52517 83.1749 10.3993 83.1749 11.7777C83.1749 13.1225 82.2559 13.8621 81.2361 13.9518L83.2533 17ZM82.2111 11.7777C82.2111 10.9372 81.6059 10.3545 80.7206 10.3545H78.7594V13.2122H80.7206C81.6059 13.2122 82.2111 12.6182 82.2111 11.7777ZM90.6093 17H85.712V9.52517H90.6093V10.3545H86.6422V12.7639H90.5309V13.5932H86.6422V16.1707H90.6093V17ZM95.7121 17H93.157V9.52517H95.7121C98.0319 9.52517 99.5448 11.1501 99.5448 13.2682C99.5448 15.3975 98.0319 17 95.7121 17ZM94.0871 10.3545V16.1707H95.7121C97.5276 16.1707 98.581 14.8707 98.581 13.2682C98.581 11.6544 97.5612 10.3545 95.7121 10.3545H94.0871ZM109.429 17H106.022V9.52517H109.351C110.651 9.52517 111.446 10.3096 111.446 11.4303C111.446 12.3717 110.819 12.9992 110.135 13.1449C110.931 13.2682 111.592 14.0863 111.592 14.9828C111.592 16.1819 110.796 17 109.429 17ZM106.952 10.3545V12.7639H109.194C110.034 12.7639 110.483 12.2484 110.483 11.5648C110.483 10.8924 110.034 10.3545 109.194 10.3545H106.952ZM106.952 13.5932V16.1707H109.239C110.113 16.1707 110.628 15.6776 110.628 14.8819C110.628 14.1983 110.158 13.5932 109.239 13.5932H106.952ZM116.9 17H115.97V13.8397L113.022 9.52517H114.109L116.429 12.9992L118.749 9.52517H119.836L116.9 13.8397V17Z" fill="#2B3B63"/>
<path d="M76.3635 36.962H80.1112V31.9884H83.6409C86.9092 31.9884 88.6959 29.8096 88.6959 27.1687C88.6959 24.5058 86.9092 22.2831 83.6409 22.2831H76.3635V36.962ZM84.8829 27.1467C84.8829 28.1371 84.1421 28.7753 83.1398 28.7753H80.1112V25.4742H83.1398C84.1421 25.4742 84.8829 26.1344 84.8829 27.1467Z" fill="#FF7048"/>
<path d="M98.6877 36.962H102.98L100.017 31.5702C101.368 31.0861 102.915 29.7216 102.915 27.1687C102.915 24.4398 101.084 22.2831 97.8597 22.2831H90.5823V36.962H94.33V31.9884H96.2474L98.6877 36.962ZM99.1017 27.1247C99.1017 28.1371 98.2737 28.7753 97.2932 28.7753H94.33V25.4742H97.2932C98.2737 25.4742 99.1017 26.1124 99.1017 27.1247Z" fill="#FF7048"/>
<path d="M104.465 29.6336C104.465 34.1011 107.798 37.2261 112.243 37.2261C116.688 37.2261 120 34.1011 120 29.6336C120 25.1661 116.688 22.041 112.243 22.041C107.798 22.041 104.465 25.1661 104.465 29.6336ZM116.187 29.6336C116.187 32.0104 114.64 33.881 112.243 33.881C109.825 33.881 108.278 32.0104 108.278 29.6336C108.278 27.2348 109.825 25.3861 112.243 25.3861C114.64 25.3861 116.187 27.2348 116.187 29.6336Z" fill="#FF7048"/>
<path fill-rule="evenodd" clip-rule="evenodd" d="M17.9091 8.88086L30.3409 14.7901L29.3106 16.8992L17.9091 11.4797L6.82667 16.7474L2.3734 24.051V43.6589H30.1421V46H0V23.4012L5.15803 14.9418L17.9091 8.88086Z" fill="#FF7048"/>
<path d="M13.9771 34.89C15.4393 36.3005 17.4907 37.2261 20.437 37.2261C24.3435 37.2261 26.5041 35.2646 26.5041 32.3114C26.5041 28.9834 23.1868 28.2781 20.7862 27.7712C19.1712 27.4627 18.2764 27.1982 18.2764 26.4268C18.2764 25.7877 18.7565 25.2808 20.0005 25.2808C21.2881 25.2808 22.8813 25.7877 24.1035 26.8015L26.1549 24.0907C24.6054 22.7463 22.5758 22.041 20.2406 22.041C16.5087 22.041 14.4354 24.1788 14.4354 26.6472C14.4354 30.1295 17.7963 30.7466 20.1969 31.2314C21.7464 31.562 22.6849 31.8926 22.6849 32.7301C22.6849 33.4354 21.8992 33.9863 20.6116 33.9863C18.6256 33.9863 17.0106 33.1048 15.963 32.0469L13.9771 34.89Z" fill="#2B3B63"/>
<path d="M38.2771 36.9617H42.0308V22.2614H38.2771V27.7492H32.2318V22.2614H28.478V36.9617H32.2318V31.0551H38.2771V36.9617Z" fill="#2B3B63"/>
<path d="M44.8725 36.9617H55.5446V33.7659H48.6263V31.1212H55.3918V27.9035H48.6263V25.4571H55.5446V22.2614H44.8725V36.9617Z" fill="#2B3B63"/>
<path d="M57.9423 36.9617H64.0749C68.6361 36.9617 71.9316 34.1627 71.9316 29.6005C71.9316 25.0384 68.6361 22.2614 64.0531 22.2614H57.9423V36.9617ZM61.6961 33.6557V25.5673H64.0749C66.7374 25.5673 68.0905 27.3305 68.0905 29.6005C68.0905 31.7824 66.6065 33.6557 64.0531 33.6557H61.6961Z" fill="#2B3B63"/>
</svg>
