<svg width="24" height="24" viewBox="0 0 24 24" fill="none" xmlns="http://www.w3.org/2000/svg">
<path d="M12 18.0002L5.54996 20.7502C5.33329 20.8335 5.12913 20.8544 4.93746 20.8127C4.74579 20.771 4.58329 20.6835 4.44996 20.5502C4.31663 20.4169 4.22913 20.2502 4.18746 20.0502C4.14579 19.8502 4.16663 19.6419 4.24996 19.4252L11.075 4.0502C11.1583 3.8502 11.2875 3.7002 11.4625 3.6002C11.6375 3.5002 11.8166 3.4502 12 3.4502C12.1833 3.4502 12.3625 3.5002 12.5375 3.6002C12.7125 3.7002 12.8416 3.8502 12.925 4.0502L19.75 19.4252C19.8333 19.6419 19.8541 19.8502 19.8125 20.0502C19.7708 20.2502 19.6833 20.4169 19.55 20.5502C19.4166 20.6835 19.2541 20.771 19.0625 20.8127C18.8708 20.8544 18.6666 20.8335 18.45 20.7502L12 18.0002Z" fill="black"/>
</svg>
