<svg width="24" height="24" viewBox="0 0 24 24" fill="none" xmlns="http://www.w3.org/2000/svg">
<path d="M3 4.05C3 3.75 3.1 3.5 3.3 3.3C3.5 3.1 3.75 3 4.05 3L8.1 3C8.31667 3 8.5125 3.075 8.6875 3.225C8.8625 3.375 8.98333 3.56667 9.05 3.8L9.75 7.25C9.78333 7.48333 9.7625 7.72083 9.6875 7.9625C9.6125 8.20417 9.5 8.4 9.35 8.55L7 10.9C7.36667 11.5333 7.77083 12.1333 8.2125 12.7C8.65417 13.2667 9.13333 13.8083 9.65 14.325C10.1833 14.875 10.7375 15.3792 11.3125 15.8375C11.8875 16.2958 12.4833 16.6917 13.1 17.025L15.55 14.6C15.6833 14.4667 15.8417 14.375 16.025 14.325C16.2083 14.275 16.4333 14.2667 16.7 14.3L20.2 14.95C20.4167 14.9833 20.6042 15.0917 20.7625 15.275C20.9208 15.4583 21 15.6667 21 15.9L21 19.95C21 20.25 20.9 20.5 20.7 20.7C20.5 20.9 20.25 21 19.95 21C17.8667 21 15.8083 20.5458 13.775 19.6375C11.7417 18.7292 9.89167 17.4417 8.225 15.775C6.55833 14.1083 5.27083 12.2583 4.3625 10.225C3.45417 8.19167 3 6.13333 3 4.05Z" fill="black"/>
</svg>
