<svg width="24" height="24" viewBox="0 0 24 24" fill="none" xmlns="http://www.w3.org/2000/svg">
<path d="M16.03 15.8018C16.82 15.8018 17.56 16.0811 18.12 16.5856C18.68 17.0901 18.99 17.7568 18.99 18.4685V21.2072H4.99V18.4685C4.99 17.7568 5.3 17.0901 5.86 16.5856C6.42 16.0811 7.16 15.8018 7.95 15.8018H16.03ZM16.03 14H7.95C6.64 14 5.38 14.4685 4.45 15.3063C3.52 16.1441 3 17.2793 3 18.4595V23H21V18.4595C21 17.2793 20.48 16.1441 19.55 15.3063C18.62 14.4685 17.36 14 16.05 14H16.03Z" fill="black"/>
<path d="M12 2C14.21 2 16 3.79 16 6C16 8.21 14.21 10 12 10C9.79 10 8 8.21 8 6C8 3.79 9.79 2 12 2ZM12 0C8.69 0 6 2.69 6 6C6 9.31 8.69 12 12 12C15.31 12 18 9.31 18 6C18 2.69 15.31 0 12 0Z" fill="black"/>
</svg>
