<svg width="24" height="20" viewBox="0 0 24 20" fill="none" xmlns="http://www.w3.org/2000/svg">
<g clip-path="url(#clip0_2255_1301)">
<path opacity="0.2" d="M18.7058 15.1394H20.4453C20.9001 15.1394 21.2032 14.8218 21.2032 14.3526V12.8508C21.2032 12.3817 20.9001 12.0713 20.4453 12.0713H18.7058C18.251 12.0713 17.9479 12.3817 17.9479 12.8508V14.3526C17.9479 14.8218 18.251 15.1394 18.7058 15.1394Z" fill="black"/>
<path d="M18.7088 15.1395H20.4628C20.9103 15.1395 21.2134 14.8218 21.2134 14.3527V3.39566C21.2134 2.92648 20.9103 2.60889 20.4628 2.60889H18.7088C18.2613 2.60889 17.9509 2.92648 17.9509 3.39566V14.3527C17.9509 14.8218 18.2613 15.1395 18.7088 15.1395Z" fill="black"/>
<path opacity="0.2" d="M13.3057 15.1394H15.0453C15.5 15.1394 15.8032 14.8218 15.8032 14.3526V12.8508C15.8032 12.3817 15.5 12.0713 15.0453 12.0713H13.3057C12.851 12.0713 12.5479 12.3817 12.5479 12.8508V14.3526C12.5479 14.8218 12.851 15.1394 13.3057 15.1394Z" fill="black"/>
<path d="M13.3098 15.1394H15.0493C15.4968 15.1394 15.8072 14.8218 15.8072 14.3526V6.24673C15.8072 5.77755 15.4968 5.45996 15.0493 5.45996H13.3098C12.855 5.45996 12.5519 5.77755 12.5519 6.24673V14.3526C12.5519 14.8218 12.855 15.1394 13.3098 15.1394Z" fill="black"/>
<path opacity="0.2" d="M7.90572 15.1394H9.64528C10.1 15.1394 10.4032 14.8218 10.4032 14.3526V12.8508C10.4032 12.3817 10.1 12.0713 9.64528 12.0713H7.90572C7.45099 12.0713 7.14783 12.3817 7.14783 12.8508V14.3526C7.14783 14.8218 7.45099 15.1394 7.90572 15.1394Z" fill="black"/>
<path d="M7.9034 15.1398H9.64296C10.0977 15.1398 10.4009 14.8221 10.4009 14.353V8.86002C10.4009 8.39084 10.0977 8.07324 9.64296 8.07324H7.9034C7.44866 8.07324 7.14551 8.39084 7.14551 8.86002V14.353C7.14551 14.8221 7.44866 15.1398 7.9034 15.1398Z" fill="black"/>
<path opacity="0.2" d="M2.49703 15.1394H4.23659C4.69133 15.1394 4.99448 14.8218 4.99448 14.3526V12.8508C4.99448 12.3817 4.69133 12.0713 4.23659 12.0713H2.49703C2.04229 12.0713 1.73914 12.3817 1.73914 12.8508V14.3526C1.73914 14.8218 2.04229 15.1394 2.49703 15.1394Z" fill="black"/>
<path d="M2.49703 15.1398H4.23659C4.69133 15.1398 4.99448 14.8221 4.99448 14.353V11.1121C4.99448 10.6429 4.69133 10.3325 4.23659 10.3325H2.49703C2.04229 10.3325 1.73914 10.6429 1.73914 11.1121V14.353C1.73914 14.8221 2.04229 15.1398 2.49703 15.1398Z" fill="black"/>
</g>
<defs>
<clipPath id="clip0_2255_1301">
<rect width="19.4743" height="12.5378" fill="white" transform="translate(1.73914 2.60889)"/>
</clipPath>
</defs>
</svg>
